<svg width="32" height="32" viewBox="0 0 32 32" fill="none" xmlns="http://www.w3.org/2000/svg">
  <!-- Raíces sólidas (base de la empresa) -->
  <path d="M10 28C10 28 11.5 30 16 30C20.5 30 22 28 22 28" stroke="#E2E8F0" stroke-width="1.8" stroke-linecap="round" stroke-linejoin="round"/>
  <path d="M12 28C12 28 13 30 16 30C19 30 20 28 20 28" stroke="#06B6D4" stroke-width="1.5" stroke-linecap="round" stroke-linejoin="round"/>
  
  <!-- Tronco principal (conexión digital) -->
  <path d="M16 28L16 18" stroke="#E2E8F0" stroke-width="2.2" stroke-linecap="round"/>
  
  <!-- Nodo central tecnológico -->
  <circle cx="16" cy="18" r="3" fill="#E2E8F0" opacity="0.15"/>
  <circle cx="16" cy="18" r="2" stroke="#E2E8F0" stroke-width="1.5"/>
  <circle cx="16" cy="18" r="1" fill="#E2E8F0"/>
  
  <!-- Ramas principales (red de conexiones) -->
  <path d="M16 18L11 13" stroke="#E2E8F0" stroke-width="1.8" stroke-linecap="round"/>
  <path d="M16 18L21 13" stroke="#06B6D4" stroke-width="1.8" stroke-linecap="round"/>
  <path d="M16 18L16 12" stroke="#E2E8F0" stroke-width="1.8" stroke-linecap="round"/>
  
  <!-- Nodos de conexión principales -->
  <circle cx="11" cy="13" r="2.5" fill="#06B6D4" opacity="0.2"/>
  <circle cx="11" cy="13" r="1.5" stroke="#06B6D4" stroke-width="1.2"/>
  <circle cx="21" cy="13" r="2.5" fill="#E2E8F0" opacity="0.2"/>
  <circle cx="21" cy="13" r="1.5" stroke="#E2E8F0" stroke-width="1.2"/>
  <circle cx="16" cy="12" r="2.5" fill="#E2E8F0" opacity="0.2"/>
  <circle cx="16" cy="12" r="1.5" stroke="#E2E8F0" stroke-width="1.2"/>
  
  <!-- Hojas/nodos de crecimiento digital -->
  <circle cx="9" cy="10" r="1.8" fill="#06B6D4" opacity="0.7"/>
  <circle cx="13" cy="8" r="1.8" fill="#E2E8F0" opacity="0.7"/>
  <circle cx="19" cy="8" r="1.8" fill="#06B6D4" opacity="0.7"/>
  <circle cx="23" cy="10" r="1.8" fill="#E2E8F0" opacity="0.7"/>
  <circle cx="16" cy="6" r="1.8" fill="#E2E8F0" opacity="0.7"/>
  
  <!-- Conexiones de red digital -->
  <path d="M11 13L9 10" stroke="#06B6D4" stroke-width="1.2" stroke-linecap="round" opacity="0.6"/>
  <path d="M11 13L13 8" stroke="#06B6D4" stroke-width="1.2" stroke-linecap="round" opacity="0.6"/>
  <path d="M21 13L19 8" stroke="#E2E8F0" stroke-width="1.2" stroke-linecap="round" opacity="0.6"/>
  <path d="M21 13L23 10" stroke="#E2E8F0" stroke-width="1.2" stroke-linecap="round" opacity="0.6"/>
  <path d="M16 12L16 6" stroke="#E2E8F0" stroke-width="1.2" stroke-linecap="round" opacity="0.6"/>
  <path d="M16 12L13 8" stroke="#06B6D4" stroke-width="1.2" stroke-linecap="round" opacity="0.6"/>
  <path d="M16 12L19 8" stroke="#06B6D4" stroke-width="1.2" stroke-linecap="round" opacity="0.6"/>
</svg>
